<svg xmlns="http://www.w3.org/2000/svg" xmlns:xlink="http://www.w3.org/1999/xlink" width="2824" height="866" viewBox="0 0 2824 866">
<defs>
    <style>
      .cls-1, .cls-10, .cls-11, .cls-12, .cls-13, .cls-14, .cls-15, .cls-17, .cls-19, .cls-2, .cls-20, .cls-3, .cls-4, .cls-5, .cls-6, .cls-8 {
        fill-rule: evenodd;
      }

      .cls-1 {
        fill: url(#linear-gradient);
      }

      .cls-12, .cls-13, .cls-16, .cls-19, .cls-2, .cls-3, .cls-5, .cls-8, .cls-9 {
        fill: none;
      }

      .cls-2, .cls-3 {
        stroke: #67120f;
        opacity: 0.08;
      }

      .cls-11, .cls-12, .cls-13, .cls-14, .cls-15, .cls-16, .cls-17, .cls-19, .cls-2, .cls-20, .cls-3, .cls-5, .cls-8, .cls-9 {
        stroke-width: 2px;
      }

      .cls-12, .cls-19, .cls-3, .cls-5, .cls-8, .cls-9 {
        stroke-linecap: round;
      }

      .cls-4 {
        fill: #eb5051;
      }

      .cls-11, .cls-12, .cls-13, .cls-14, .cls-15, .cls-16, .cls-17, .cls-19, .cls-20, .cls-5, .cls-8, .cls-9 {
        stroke: #fff;
      }

      .cls-19, .cls-5, .cls-8, .cls-9 {
        stroke-linejoin: round;
      }

      .cls-5, .cls-8, .cls-9 {
        stroke-miterlimit: 1.5;
      }

      .cls-5 {
        opacity: 0.2;
      }

      .cls-6, .cls-7 {
        fill: #f25c5d;
      }

      .cls-10 {
        fill: #fff;
      }

      .cls-11, .cls-14, .cls-15, .cls-17, .cls-18, .cls-20 {
        fill: #fd8376;
      }

      .cls-11 {
        filter: url(#filter);
      }

      .cls-14 {
        filter: url(#filter-2);
      }

      .cls-15 {
        filter: url(#filter-3);
      }

      .cls-17 {
        filter: url(#filter-4);
      }

      .cls-20 {
        filter: url(#filter-5);
      }
    </style>
    <linearGradient id="linear-gradient" x1="1947.014" y1="87" x2="2814.045" y2="954.031" gradientUnits="userSpaceOnUse">
      <stop offset="0" stop-color="#fb7d72"/>
      <stop offset="0.008" stop-color="#fb7d72"/>
      <stop offset="1" stop-color="#f25c5d"/>
    </linearGradient>
    <filter id="filter" x="2162" y="595" width="379" height="375" filterUnits="userSpaceOnUse">
      <feOffset result="offset" dx="20.506" dy="20.506" in="SourceAlpha"/>
      <feGaussianBlur result="blur" stdDeviation="11.832"/>
      <feFlood result="flood" flood-color="#890300" flood-opacity="0.29"/>
      <feComposite result="composite" operator="in" in2="blur"/>
      <feBlend result="blend" in="SourceGraphic"/>
    </filter>
    <filter id="filter-2" x="2620" y="426" width="358" height="349" filterUnits="userSpaceOnUse">
      <feOffset result="offset" dx="20.506" dy="20.506" in="SourceAlpha"/>
      <feGaussianBlur result="blur" stdDeviation="11.832"/>
      <feFlood result="flood" flood-color="#890300" flood-opacity="0.29"/>
      <feComposite result="composite" operator="in" in2="blur"/>
      <feBlend result="blend" in="SourceGraphic"/>
    </filter>
    <filter id="filter-3" x="2050" y="76" width="388" height="378" filterUnits="userSpaceOnUse">
      <feOffset result="offset" dx="20.506" dy="20.506" in="SourceAlpha"/>
      <feGaussianBlur result="blur" stdDeviation="11.832"/>
      <feFlood result="flood" flood-color="#890300" flood-opacity="0.29"/>
      <feComposite result="composite" operator="in" in2="blur"/>
      <feBlend result="blend" in="SourceGraphic"/>
    </filter>
    <filter id="filter-4" x="2704" y="218" width="357" height="351" filterUnits="userSpaceOnUse">
      <feOffset result="offset" dx="20.506" dy="20.506" in="SourceAlpha"/>
      <feGaussianBlur result="blur" stdDeviation="11.832"/>
      <feFlood result="flood" flood-color="#890300" flood-opacity="0.29"/>
      <feComposite result="composite" operator="in" in2="blur"/>
      <feBlend result="blend" in="SourceGraphic"/>
    </filter>
    <filter id="filter-5" x="2286" y="374" width="367" height="361" filterUnits="userSpaceOnUse">
      <feOffset result="offset" dx="20.506" dy="20.506" in="SourceAlpha"/>
      <feGaussianBlur result="blur" stdDeviation="11.832"/>
      <feFlood result="flood" flood-color="#890300" flood-opacity="0.29"/>
      <feComposite result="composite" operator="in" in2="blur"/>
      <feBlend result="blend" in="SourceGraphic"/>
    </filter>
  </defs>
  <g id="Marketing-Page">
    <path id="bg" class="cls-1" d="M3586.75,87a583.985,583.985,0,0,1,6.68,157.894C3550.28,702.851,2971.81,1015.72,2301.37,943.7,1681.45,877.114,1199.99,504.773,1165.06,87H3586.75Z" transform="translate(-772 -88)"/>
    <g id="Illustration">
      <path id="Hill" class="cls-2" d="M2603.08,892.159c2.19-.3,4.39-0.594,6.58-0.88m19.46-2.338q9.435-1.039,18.95-1.9,19.86-1.8,39.53-2.792m33.52-1.118a932.6,932.6,0,0,1,190.06,16.16m-529.87,51.167a931.359,931.359,0,0,1,201.68-55.328" transform="translate(-772 -88)"/>
      <g id="Clouds">
        <g id="_2" data-name="2">
          <path id="Cloud_copy_7" data-name="Cloud copy 7" class="cls-2" d="M2537.67,402h-16.34m-10.43,0h-41.1" transform="translate(-772 -88)"/>
          <path id="Cloud_copy_8" data-name="Cloud copy 8" class="cls-2" d="M2521.63,351.373A27.729,27.729,0,1,1,2537.23,402" transform="translate(-772 -88)"/>
          <path id="Cloud_copy_9" data-name="Cloud copy 9" class="cls-2" d="M2507.7,344.831a12.34,12.34,0,0,1,24.68,0,12.6,12.6,0,0,1-.4,3.154" transform="translate(-772 -88)"/>
          <path id="Cloud_copy_10" data-name="Cloud copy 10" class="cls-2" d="M2474.9,355.48a21.156,21.156,0,0,1,36.7-18.9" transform="translate(-772 -88)"/>
          <path id="Cloud_copy_11" data-name="Cloud copy 11" class="cls-2" d="M2469.8,402a23.747,23.747,0,1,1,15.43-41.825" transform="translate(-772 -88)"/>
        </g>
        <g id="_1_copy" data-name="1 copy">
          <path id="Cloud_copy_18" data-name="Cloud copy 18" class="cls-2" d="M2921.6,220H2869" transform="translate(-772 -88)"/>
          <path id="Cloud_copy_25" data-name="Cloud copy 25" class="cls-2" d="M2922.82,193.044a15.566,15.566,0,1,1,16,25.992" transform="translate(-772 -88)"/>
          <path id="Cloud_copy_26" data-name="Cloud copy 26" class="cls-2" d="M2888.95,176.822a25.649,25.649,0,0,1,42.92,10.164" transform="translate(-772 -88)"/>
          <path id="Cloud_copy_27" data-name="Cloud copy 27" class="cls-2" d="M2860.39,197.131a17.594,17.594,0,0,1-.19-2.632,18.414,18.414,0,0,1,34.91-8.1" transform="translate(-772 -88)"/>
          <path id="Cloud_copy_28" data-name="Cloud copy 28" class="cls-2" d="M2849.61,213.141a10.162,10.162,0,0,1-.61-3.5,10.405,10.405,0,0,1,18.33-6.7" transform="translate(-772 -88)"/>
        </g>
        <g id="Cloud_3" data-name="Cloud 3">
          <path id="Cloud_copy_13" data-name="Cloud copy 13" class="cls-2" d="M2862.08,246.689h-5.5m-3.22,0H2817.5" transform="translate(-772 -88)"/>
          <path id="Cloud_copy_14" data-name="Cloud copy 14" class="cls-2" d="M2865.19,227.087a9.806,9.806,0,0,1,0,19.6" transform="translate(-772 -88)"/>
          <path id="Cloud_copy_15" data-name="Cloud copy 15" class="cls-2" d="M2849.96,226.848a6.545,6.545,0,1,1,12.23,3.206,6.618,6.618,0,0,1-1.89,2.054" transform="translate(-772 -88)"/>
          <path id="Cloud_copy_16" data-name="Cloud copy 16" class="cls-2" d="M2822.37,224.966a14.823,14.823,0,0,1,28.43-4.605" transform="translate(-772 -88)"/>
          <path id="Cloud_copy_17" data-name="Cloud copy 17" class="cls-2" d="M2817.74,246.689a10.28,10.28,0,1,1,7.89-16.988" transform="translate(-772 -88)"/>
        </g>
        <g>
          <path id="Cloud_copy_2" data-name="Cloud copy 2" class="cls-2" d="M2885.41,766.183a15.64,15.64,0,0,1,25.92,11.759" transform="translate(-772 -88)"/>
          <path id="Cloud_copy_3" data-name="Cloud copy 3" class="cls-2" d="M2833.64,801.179a32.042,32.042,0,0,1,56.98-28.871" transform="translate(-772 -88)"/>
          <path id="Cloud_copy_4" data-name="Cloud copy 4" class="cls-2" d="M2822.07,822.492a19.039,19.039,0,1,1,9.56-35.515" transform="translate(-772 -88)"/>
          <path id="Cloud_copy_26-2" data-name="Cloud copy 26" class="cls-2" d="M2921.79,816.7A24.43,24.43,0,0,1,2965,826.721" transform="translate(-772 -88)"/>
          <path id="Cloud_copy" data-name="Cloud copy" class="cls-2" d="M2902.39,783.69a23.642,23.642,0,0,1,40.05,24" transform="translate(-772 -88)"/>
          <path id="Cloud_copy_5" data-name="Cloud copy 5" class="cls-2" d="M2882.34,822.492h-60.27" transform="translate(-772 -88)"/>
          <path id="Shape_2_copy" data-name="Shape 2 copy" class="cls-2" d="M2888.45,822.492h5.34" transform="translate(-772 -88)"/>
        </g>
        <g>
          <path id="Cloud_copy_18-2" data-name="Cloud copy 18" class="cls-2" d="M2959.4,856h-64.09" transform="translate(-772 -88)"/>
          <path id="Cloud_copy_27-2" data-name="Cloud copy 27" class="cls-2" d="M2896.89,836.924a17.551,17.551,0,0,1,32.48-13.031" transform="translate(-772 -88)"/>
          <path id="Cloud_copy_28-2" data-name="Cloud copy 28" class="cls-2" d="M2895.31,856a9.9,9.9,0,1,1,7.57-16.3" transform="translate(-772 -88)"/>
        </g>
      </g>
      <g id="Ripple">
        <path class="cls-3" d="M2685.07,556.857a47.951,47.951,0,0,1-4.77,3.533m-5.89,3.248q-0.885.413-1.8,0.788a47.528,47.528,0,0,1-62.2-61.632q0.645-1.614,1.41-3.169c0.5-1.029,1.05-2.038,1.62-3.024a46.816,46.816,0,0,1,2.57-3.947q1.11-1.514,2.31-2.937c0.09-.1.17-0.195,0.25-0.292m3.71-3.824c0.52-.487,1.06-0.962,1.61-1.426m4.87-3.6a46.194,46.194,0,0,1,4.01-2.321c0.72-.375,1.46-0.732,2.21-1.069,1.29-.583,2.62-1.11,3.97-1.578m5.77-1.6q2.25-.469,4.56-0.724a48.122,48.122,0,0,1,5.22-.283,47.473,47.473,0,0,1,38.63,75.144,45.441,45.441,0,0,1-2.93,3.686" transform="translate(-772 -88)"/>
        <path id="Ellipse_3_copy" data-name="Ellipse 3 copy" class="cls-3" d="M2690.19,402.234q2.655,0.8,5.27,1.722m6.62,2.541c1.01,0.423,2.02.859,3.01,1.308q2.355,1.057,4.65,2.208c1.54,0.772,3.07,1.576,4.57,2.41m7.46,4.487q2.22,1.446,4.38,2.984,1.59,1.139,3.15,2.326,1.95,1.485,3.84,3.046A123.529,123.529,0,0,1,2605.5,633.9c-0.78-.338-1.56-0.683-2.33-1.036-0.61-.28-1.22-0.563-1.82-0.852-0.52-.246-1.03-0.5-1.55-0.751-0.44-.22-0.89-0.444-1.33-0.67m-4.75-2.557c-0.47-.263-0.93-0.529-1.39-0.8m-4.49-2.752c-0.57-.365-1.14-0.736-1.7-1.111s-1.14-.764-1.7-1.153q-0.495-.342-0.99-0.688c-0.69-.485-1.37-0.978-2.05-1.477-0.29-.216-0.59-0.435-0.88-0.653-0.79-.593-1.57-1.2-2.35-1.806-0.63-.491-1.24-0.989-1.86-1.492m-4.34-3.724c-0.15-.14-0.31-0.28-0.47-0.421-0.75-.688-1.5-1.386-2.24-2.093-0.69-.651-1.36-1.31-2.03-1.976-0.69-.693-1.38-1.395-2.06-2.1q-1.215-1.277-2.4-2.586a123.553,123.553,0,0,1,114.84-204.038q1.92,0.363,3.81.783c1.07,0.238,2.14.49,3.2,0.755" transform="translate(-772 -88)"/>
        <path id="Ellipse_3_copy_2" data-name="Ellipse 3 copy 2" class="cls-3" d="M2422.47,373.76c0.61-.962,1.23-1.92,1.85-2.874m3.02-4.543c0.38-.55.75-1.1,1.13-1.644,0.56-.821,1.14-1.638,1.71-2.452,0.49-.686.97-1.369,1.46-2.05m3.67-4.968c0.62-.818,1.24-1.633,1.87-2.443,0.46-.607.94-1.211,1.41-1.814q1.485-1.9,3.02-3.767,1.425-1.765,2.9-3.507c0.65-.763,1.29-1.521,1.94-2.277m4.19-4.752q1.515-1.674,3.05-3.323,1.32-1.421,2.67-2.821c0.44-.456.87-0.911,1.31-1.363q0.825-.846,1.65-1.683,1.545-1.551,3.1-3.078c0.76-.745,1.52-1.485,2.29-2.22,0.65-.625,1.31-1.246,1.97-1.865,0.71-.671,1.43-1.338,2.15-2,0.82-.746,1.63-1.487,2.45-2.224a274.525,274.525,0,0,1,359.55-5.975c1.31,1.1,2.62,2.217,3.91,3.343q1.545,1.342,3.06,2.708l0.66,0.591m3.69,3.4q0.69,0.649,1.38,1.3,0.57,0.544,1.14,1.093c0.54,0.517,1.08,1.037,1.61,1.558l1.14,1.116m3.24,3.26q0.72,0.738,1.44,1.48l1.14,1.192m2.99,3.183a274.5,274.5,0,0,1-10.86,383.436q-1.785,1.73-3.6,3.427c-1.44,1.339-2.88,2.663-4.35,3.972q-2.025,1.819-4.11,3.6-1.86,1.6-3.75,3.172-1.65,1.361-3.31,2.7-1.065.852-2.13,1.7c-0.72.566-1.44,1.128-2.17,1.686-1.19.916-2.38,1.822-3.59,2.719-0.7.524-1.41,1.046-2.12,1.564-0.85.627-1.72,1.25-2.58,1.868m-4.81,3.352c-0.69.47-1.39,0.936-2.08,1.4-0.3.2-.59,0.393-0.89,0.589-0.83.553-1.67,1.1-2.51,1.648-0.58.375-1.16,0.748-1.75,1.119q-1.155.734-2.31,1.457c-0.64.4-1.29,0.793-1.93,1.186m-5.33,3.173q-1.305.762-2.64,1.511c-1.08.612-2.16,1.216-3.25,1.813-0.47.254-.93,0.507-1.4,0.757m-4.55,2.4q-1.125.58-2.25,1.151m-4.55,2.238c-0.73.356-1.48,0.709-2.22,1.058-1.33.626-2.67,1.242-4.01,1.847-0.69.312-1.39,0.623-2.08,0.93q-1.005.439-2.01,0.873c-1.47.636-2.96,1.26-4.44,1.871A273.755,273.755,0,0,1,2654.5,795C2502.9,795,2380,672.1,2380,520.5a273.335,273.335,0,0,1,35.77-135.6c0.54-.942,1.08-1.88,1.63-2.816,0.66-1.128,1.33-2.252,2-3.371" transform="translate(-772 -88)"/>
        <path id="Ellipse_3_copy_3" data-name="Ellipse 3 copy 3" class="cls-2" d="M2145.65,691.559q-0.57-1.724-1.14-3.452m-2.08-6.5c-0.35-1.134-.71-2.269-1.05-3.4-0.36-1.16-.71-2.322-1.06-3.485s-0.68-2.327-1.02-3.493m-2.07-7.3-0.75-2.75c-0.27-1.015-.55-2.031-0.81-3.049q-0.495-1.845-.96-3.7c-0.24-.92-0.47-1.84-0.7-2.762q-0.285-1.146-.57-2.3c-0.18-.726-0.35-1.453-0.53-2.181-0.23-.941-0.45-1.883-0.67-2.826m-1.19-5.149-0.6-2.728q-0.345-1.586-.69-3.175c-0.24-1.132-.47-2.265-0.71-3.4q-0.36-1.776-.72-3.555-0.33-1.683-.66-3.37c-0.18-.93-0.35-1.861-0.53-2.793-0.22-1.172-.43-2.344-0.64-3.519-0.21-1.158-.41-2.318-0.62-3.479l-0.51-3A540.711,540.711,0,0,1,2118,521c0-177.649,86.26-335.149,219.19-432.9m638.13,1.855C3106.82,187.837,3192,344.471,3192,521M2325.85,945.328A538.349,538.349,0,0,1,2152.5,710.777q-0.84-2.205-1.65-4.419-0.57-1.554-1.14-3.113t-1.11-3.122c-0.39-1.092-.77-2.184-1.15-3.279" transform="translate(-772 -88)"/>
      </g>
      <g id="Tower">
        <path id="bg-2" data-name="bg" class="cls-4" d="M2654.51,905.108l47.18-27.243c1.05,4.006,2.1,8.014,3.18,12.024l-38.36,22.147Zm0-79.092,30.56-17.649h0.18q1.3,6.11,2.66,12.22l-21.4,12.357Zm0-60.42,20.08-11.6h0.05q1.11,6.26,2.27,12.519l-10.4,6.006Zm0-47.1,12.98-7.5h0.13q0.945,6.333,1.94,12.663l-3.05,1.765ZM2637.8,742h-2.34q1.17-6.909,2.27-13.819l4.78-2.754,12,6.928Zm16.47,37.59-28.99,16.735q1.62-7.835,3.14-15.665l13.97-8.069Zm0.17,60.318-44.23,25.539h-0.71q1.965-7.84,3.86-15.674l29.11-16.805Zm0.07,79.057-55.36,31.961c-5.13.358-9.79,0.662-13.92,0.919,0.84-2.735,1.71-5.472,2.54-8.205l54.74-31.6Z" transform="translate(-772 -88)"/>
        <path id="Layer_5" data-name="Layer 5" class="cls-5" d="M2655.51,904.108l47.18-27.243c1.05,4.006,2.1,8.014,3.18,12.023l-38.36,22.149Zm0-79.092,30.56-17.649h0.18q1.3,6.11,2.66,12.22l-21.4,12.357Zm0-60.42,20.08-11.6h0.05q1.11,6.258,2.27,12.519l-10.4,6.006Zm0-47.1,12.98-7.5h0.13q0.945,6.332,1.94,12.662l-3.05,1.764ZM2638.8,741h-2.34q1.17-6.908,2.27-13.818l4.78-2.755,12,6.928Zm16.47,37.591-28.99,16.735q1.62-7.835,3.14-15.665l13.97-8.069Zm0.17,60.318-44.23,25.539h-0.71q1.965-7.84,3.86-15.674l29.11-16.806Zm0.07,79.056-57.19,33.019c-4.52.314-8.66,0.585-12.39,0.817,0.95-3.053,1.91-6.109,2.84-9.16l54.74-31.6Z" transform="translate(-772 -88)"/>
        <path id="bg-3" data-name="bg" class="cls-6" d="M2720.05,938.629q-9.4-31.172-17.46-62.182h-87.53a2,2,0,0,0-1,3.732c20.55,11.866,84.09,48.55,102.14,58.97q-9.945,1.335-19.65,2.512c-36.06-20.82-92.27-53.271-92.27-53.271q-8.46,31.623-18.35,63.411c-8.13.507-14.27,0.833-17.96,1.014,44.91-142.963,66.65-275.329,78.72-414.49a19.022,19.022,0,0,0,16.59-.475c11.6,133.934,32.14,261.561,73.65,398.373Q2728.44,937.485,2720.05,938.629ZM2610.5,864.447h81.58a2,2,0,0,0,1-3.731c-18.73-10.851-71.86-41.64-71.86-41.64Q2616.21,841.741,2610.5,864.447Zm15.77-69.08h50.14a2,2,0,0,0,1.01-3.722C2663.66,783.535,2632.2,765,2632.2,765Q2629.4,780.181,2626.27,795.367ZM2636.46,741h28.29a2,2,0,0,0,1-3.731c-9.53-5.5-26.21-15.134-26.21-15.134Q2638.055,731.568,2636.46,741Zm18.56-164.729-0.01-.057-0.01.057c-2.68,37.385-6.61,84.588-11.86,121.729h23.74C2661.62,660.858,2657.69,613.655,2655.02,576.27ZM2668.62,710h-18.64a2,2,0,0,0-1,3.732c8.46,4.88,22.2,12.815,22.2,12.815Q2669.86,718.275,2668.62,710Zm7.02,43h-32.76a2,2,0,0,0-1,3.732c12.47,7.194,38.59,22.278,38.59,22.278Q2677.95,766,2675.64,753Zm10.61,54.367H2632.4a2,2,0,0,0-1,3.733l64.1,37Q2690.6,827.719,2686.25,807.367Z" transform="translate(-772 -88)"/>
        <circle id="bg-4" data-name="bg" class="cls-7" cx="1883" cy="433" r="19"/>
        <path id="Layer_25" data-name="Layer 25" class="cls-8" d="M2720.05,938.629q-9.4-31.172-17.46-62.182h-87.53a2,2,0,0,0-1,3.732c20.55,11.866,84.09,48.55,102.14,58.97q-9.945,1.335-19.65,2.512c-36.06-20.82-92.27-53.271-92.27-53.271q-8.46,31.623-18.35,63.411c-8.13.507-14.27,0.833-17.96,1.014,44.91-142.963,66.65-275.329,78.72-414.49a19.022,19.022,0,0,0,16.59-.475c11.6,133.934,32.14,261.561,73.65,398.373Q2728.44,937.485,2720.05,938.629ZM2610.5,864.447h81.58a2,2,0,0,0,1-3.731c-18.73-10.851-71.86-41.64-71.86-41.64Q2616.21,841.741,2610.5,864.447Zm15.77-69.08h50.14a2,2,0,0,0,1.01-3.722C2663.66,783.535,2632.2,765,2632.2,765Q2629.4,780.181,2626.27,795.367ZM2636.46,741h28.29a2,2,0,0,0,1-3.731c-9.53-5.5-26.21-15.134-26.21-15.134Q2638.055,731.568,2636.46,741Zm18.56-164.729-0.01-.057-0.01.057c-2.68,37.385-6.61,84.588-11.86,121.729h23.74C2661.62,660.858,2657.69,613.655,2655.02,576.27ZM2668.62,710h-18.64a2,2,0,0,0-1,3.732c8.46,4.88,22.2,12.815,22.2,12.815Q2669.86,718.275,2668.62,710Zm7.02,43h-32.76a2,2,0,0,0-1,3.732c12.47,7.194,38.59,22.278,38.59,22.278Q2677.95,766,2675.64,753Zm10.61,54.367H2632.4a2,2,0,0,0-1,3.733l64.1,37Q2690.6,827.719,2686.25,807.367Z" transform="translate(-772 -88)"/>
        <path id="Layer_26" data-name="Layer 26" class="cls-8" d="M2654.5,508.333A12.676,12.676,0,0,1,2667.17,521" transform="translate(-772 -88)"/>
        <circle id="Layer_24" data-name="Layer 24" class="cls-9" cx="1882.5" cy="433" r="19"/>
        <path id="Layer_27" data-name="Layer 27" class="cls-8" d="M2666.71,524.377a12.942,12.942,0,0,1-.47,1.375" transform="translate(-772 -88)"/>
        <path id="Layer_23" data-name="Layer 23" class="cls-10" d="M2644,704a2,2,0,1,1-2,2A2,2,0,0,1,2644,704Zm-1,9a2,2,0,1,1-2,2A2,2,0,0,1,2643,713Zm29,20a2,2,0,1,1-2,2A2,2,0,0,1,2672,733Zm-49,34a2,2,0,1,1-2,2A2,2,0,0,1,2623,767Zm-4,18a2,2,0,1,1-2,2A2,2,0,0,1,2619,785Zm78,69a2,2,0,1,1-2,2A2,2,0,0,1,2697,854Zm2,12a2,2,0,1,1-2,2A2,2,0,0,1,2699,866Zm-114,59a2,2,0,1,1-2,2A2,2,0,0,1,2585,925Zm5-16a2,2,0,1,1-2,2A2,2,0,0,1,2590,909Zm51-262a2,2,0,1,1-2,2A2,2,0,0,1,2641,647Zm2-14a2,2,0,1,1-2,2A2,2,0,0,1,2643,633Zm21-27a2,2,0,1,1-2,2A2,2,0,0,1,2664,606Zm-1-15a2,2,0,1,1-2,2A2,2,0,0,1,2663,591Z" transform="translate(-772 -88)"/>
      </g>
      <g id="Email">
        <g transform="translate(-772 -88)" style="fill: #fd8376; filter: url(#filter)">
          <path id="bubble" class="cls-11" d="M2287.5,747.754l49.01-31.362a12.3,12.3,0,0,1,16.99,3.73l24.29,37.972a12.293,12.293,0,0,1-3.73,16.982l-49.02,31.363a12.291,12.291,0,0,1-16.98-3.73l-24.29-37.972A12.3,12.3,0,0,1,2287.5,747.754Z" style="stroke: inherit; filter: none; fill: inherit"/>
        </g>
        <use transform="translate(-772 -88)" xlink:href="#bubble" style="stroke: #fff; filter: none; fill: none"/>
        <path class="cls-12" d="M2283.93,755.873l50.95,11.19,10.5-50.5" transform="translate(-772 -88)"/>
        <path class="cls-12" d="M2314.36,806.466l8.95-40.758" transform="translate(-772 -88)"/>
        <path class="cls-13" d="M2337.12,756.874l20.38,4.476" transform="translate(-772 -88)"/>
        <path class="cls-13" d="M2363.85,762.151l7.92,1.741" transform="translate(-772 -88)"/>
      </g>
      <g id="Notification">
        <g transform="translate(-772 -88)" style="fill: #fd8376; filter: url(#filter-2)">
          <path id="bubble-2" data-name="bubble" class="cls-14" d="M2761.71,545.4l46.77,12.157A10.2,10.2,0,0,1,2815.79,570l-9.41,36.228a10.214,10.214,0,0,1-12.45,7.312l-28.37-7.375-8.91,4.716-5.54-8.472-3.95-1.026a10.2,10.2,0,0,1-7.31-12.449l9.42-36.228A10.2,10.2,0,0,1,2761.71,545.4Z" style="stroke: inherit; filter: none; fill: inherit"/>
        </g>
        <use transform="translate(-772 -88)" xlink:href="#bubble-2" style="stroke: #fff; filter: none; fill: none"/>
        <path id="Shape_2_copy_5" data-name="Shape 2 copy 5" class="cls-12" d="M2785.05,574.666l15.8,4.109" transform="translate(-772 -88)"/>
        <path id="Shape_2_copy_5-2" data-name="Shape 2 copy 5" class="cls-12" d="M2783.68,579.935l18.44,4.8" transform="translate(-772 -88)"/>
        <path id="Shape_2_copy_5-3" data-name="Shape 2 copy 5" class="cls-12" d="M2782.31,585.205l9.88,2.568" transform="translate(-772 -88)"/>
        <path id="Shape_2_copy_5-4" data-name="Shape 2 copy 5" class="cls-12" d="M2794.82,588.458l1.32,0.342" transform="translate(-772 -88)"/>
        <g id="Bell">
          <path id="Rounded_Rectangle_2" data-name="Rounded Rectangle 2" class="cls-13" d="M2773.28,579.343l0.03,0.064a3.925,3.925,0,0,0,1.49,3.9l0.03,0.08a3.054,3.054,0,0,1-2.3,5.6l-8.89-2.311-9.1-2.366a3.037,3.037,0,0,1,.39-5.96c0.12,0,.23-0.013.34-0.024a3.1,3.1,0,0,1,.42.015l0.09-.086a4,4,0,0,0,2.52-1.813,4.149,4.149,0,0,0,.51-1.368l0.15-.163,1.89-7.245a7.486,7.486,0,0,1,14.49,3.767Z" transform="translate(-772 -88)"/>
          <path class="cls-13" d="M2767.59,587.709a4.081,4.081,0,1,1-7.9-2.055" transform="translate(-772 -88)"/>
        </g>
      </g>
      <g id="Notification-2" data-name="Notification">
        <g transform="translate(-772 -88)" style="fill: #fd8376; filter: url(#filter-3)">
          <path id="bubble-3" data-name="bubble" class="cls-15" d="M2193.36,196.028l70.48,8.651A15,15,0,0,1,2276.9,221.4l-6.71,54.59a14.991,14.991,0,0,1-16.71,13.061l-42.75-5.248-12.07,8.593-9.71-11.266-5.94-.73a15,15,0,0,1-13.06-16.716l6.7-54.591A15,15,0,0,1,2193.36,196.028Z" style="stroke: inherit; filter: none; fill: inherit"/>
        </g>
        <use transform="translate(-772 -88)" xlink:href="#bubble-3" style="stroke: #fff; filter: none; fill: none"/>
        <path class="cls-12" d="M2234.01,234.265l27.79,3.412" transform="translate(-772 -88)"/>
        <path id="Shape_2_copy_2" data-name="Shape 2 copy 2" class="cls-12" d="M2233.03,242.206l19.85,2.436" transform="translate(-772 -88)"/>
        <path id="Shape_2_copy_3" data-name="Shape 2 copy 3" class="cls-12" d="M2232.06,250.146l17.86,2.193" transform="translate(-772 -88)"/>
        <path id="Shape_2_copy_4" data-name="Shape 2 copy 4" class="cls-12" d="M2253.89,252.827l1.99,0.243" transform="translate(-772 -88)"/>
        <g id="Smiley">
          <path class="cls-12" d="M2215.61,245.088a12.507,12.507,0,0,1-12.45,6.548" transform="translate(-772 -88)"/>
          <path id="Ellipse_6_copy_2" data-name="Ellipse 6 copy 2" class="cls-12" d="M2207.53,237.029a4.478,4.478,0,0,1,8.83,1.174" transform="translate(-772 -88)"/>
          <path id="Ellipse_6_copy_3" data-name="Ellipse 6 copy 3" class="cls-12" d="M2195.62,235.567a4.478,4.478,0,0,1,8.83,1.173" transform="translate(-772 -88)"/>
          <circle class="cls-16" cx="1433.545" cy="152.344" r="18.485"/>
        </g>
      </g>
      <g id="Email_Time" data-name="Email Time">
        <g transform="translate(-772 -88)" style="fill: #fd8376; filter: url(#filter-4)">
          <path id="bubble-4" data-name="bubble" class="cls-17" d="M2830.13,352.209l44.93-14.418a10.013,10.013,0,0,1,12.56,6.591l11.28,35.333a10.064,10.064,0,0,1-6.42,12.682l-44.93,14.418a10.016,10.016,0,0,1-12.56-6.59l-11.28-35.333A10.074,10.074,0,0,1,2830.13,352.209Z" style="stroke: inherit; filter: none; fill: inherit"/>
        </g>
        <use transform="translate(-772 -88)" xlink:href="#bubble-4" style="stroke: #fff; filter: none; fill: none"/>
        <path class="cls-12" d="M2825.67,357.891l37.7,19.771,18.61-37.844" transform="translate(-772 -88)"/>
        <path class="cls-12" d="M2839.16,404.552l15.4-30.438" transform="translate(-772 -88)"/>
        <path class="cls-13" d="M2867.21,370.053l15.09,7.908" transform="translate(-772 -88)"/>
        <path class="cls-13" d="M2887.12,379.954l5.86,3.076" transform="translate(-772 -88)"/>
        <circle id="Ellipse_5_copy_2" data-name="Ellipse 5 copy 2" class="cls-18" cx="2106.75" cy="258.094" r="14.44"/>
        <path class="cls-19" d="M2876.61,338.117l2.39,7.48,5.95-1.908" transform="translate(-772 -88)"/>
        <circle id="Ellipse_5_copy" data-name="Ellipse 5 copy" class="cls-16" cx="2106.75" cy="258.094" r="14.44"/>
      </g>
      <g id="sms">
        <g transform="translate(-772 -88)" style="fill: #fd8376; filter: url(#filter-5)">
          <path id="bubble-5" data-name="bubble" class="cls-20" d="M2416.83,499.225l57.06-6.14a12.1,12.1,0,0,1,13.34,10.741l4.7,44.14a12.126,12.126,0,0,1-10.77,13.336l-34.62,3.724L2438.61,574l-9.7-7.074-4.81.518a12.1,12.1,0,0,1-13.34-10.741l-4.7-44.14A12.132,12.132,0,0,1,2416.83,499.225Z" style="stroke: inherit; filter: none; fill: inherit"/>
        </g>
        <use transform="translate(-772 -88)" xlink:href="#bubble-5" style="stroke: #fff; filter: none; fill: none"/>
        <path id="sms-2" data-name="sms" class="cls-10" d="M2438.41,535.163a3.576,3.576,0,0,0-.81-2.094,3.736,3.736,0,0,0-1.55-1.062,17.723,17.723,0,0,0-2.29-.606,17.541,17.541,0,0,1-1.83-.462,2.96,2.96,0,0,1-1.16-.687,1.99,1.99,0,0,1-.58-1.287,2.05,2.05,0,0,1,.49-1.687,2.625,2.625,0,0,1,1.71-.762,2.755,2.755,0,0,1,1.98.437,2.705,2.705,0,0,1,1.02,1.392l1.97-.212a3.907,3.907,0,0,0-1.7-2.425,5.085,5.085,0,0,0-3.43-.656,5.569,5.569,0,0,0-2.29.713,3.551,3.551,0,0,0-1.39,1.468,3.619,3.619,0,0,0-.32,2,3.411,3.411,0,0,0,.79,2,3.717,3.717,0,0,0,1.51,1.024,18.287,18.287,0,0,0,2.25.6,14.877,14.877,0,0,1,1.88.477,3.188,3.188,0,0,1,1.21.733,2.122,2.122,0,0,1,.6,1.356,2.258,2.258,0,0,1-.47,1.714,2.5,2.5,0,0,1-1.78.841,3.193,3.193,0,0,1-1.62-.2,2.7,2.7,0,0,1-1.1-.834,2.8,2.8,0,0,1-.54-1.13l-1.95.21a4.077,4.077,0,0,0,.97,1.955,4.523,4.523,0,0,0,1.9,1.217,5.9,5.9,0,0,0,2.56.242,5.031,5.031,0,0,0,2.37-.8,3.65,3.65,0,0,0,1.32-1.562,3.8,3.8,0,0,0,.28-1.918h0Zm14.87-11.949-3.62,12.2-6.19-11.145-2.19.235,1.48,13.9,1.83-.2-1.18-11.055,5.64,10.575,1.63-.175,3.26-11.573,1.18,11.095,1.83-.2-1.48-13.9Zm16.68,8.555a3.651,3.651,0,0,0-.82-2.094,3.705,3.705,0,0,0-1.54-1.062,18.66,18.66,0,0,0-2.29-.606,17.185,17.185,0,0,1-1.84-.462,2.97,2.97,0,0,1-1.16-.686,1.985,1.985,0,0,1-.57-1.288,2.017,2.017,0,0,1,.49-1.687,2.632,2.632,0,0,1,1.7-.762,2.731,2.731,0,0,1,1.98.437,2.6,2.6,0,0,1,1.02,1.392l1.97-.212a3.87,3.87,0,0,0-1.7-2.425,5.068,5.068,0,0,0-3.42-.656,5.521,5.521,0,0,0-2.29.713,3.488,3.488,0,0,0-1.39,1.468,3.621,3.621,0,0,0-.33,2,3.416,3.416,0,0,0,.8,2,3.652,3.652,0,0,0,1.51,1.024,18.287,18.287,0,0,0,2.25.6,15.344,15.344,0,0,1,1.88.477,3.226,3.226,0,0,1,1.2.733,2.122,2.122,0,0,1,.6,1.356,2.253,2.253,0,0,1-.46,1.714,2.537,2.537,0,0,1-1.78.841,3.174,3.174,0,0,1-1.62-.2,2.813,2.813,0,0,1-1.11-.835,2.775,2.775,0,0,1-.53-1.13l-1.95.21a3.991,3.991,0,0,0,.97,1.955,4.461,4.461,0,0,0,1.9,1.217,5.841,5.841,0,0,0,2.55.242,5.033,5.033,0,0,0,2.38-.8,3.7,3.7,0,0,0,1.31-1.562,3.806,3.806,0,0,0,.29-1.918h0Z" transform="translate(-772 -88)"/>
      </g>
    </g>
  </g>
</svg>
